<svg height="175" viewBox="0 0 148.5 175" width="148.5" xmlns="http://www.w3.org/2000/svg"><path d="m386 165 1-11h5l3-19 15-8 3-16h17l-2 17 11 8-3 17 4 1-2 11m-20.571-33-9.429 16.875 8.571-1.688-3.428 11.813 12.857-18.562-12 3.374m3-33.812h7s1.291-9.139 11-10 11.586 12.39 23 12 27.587-17.255 29-19-.807-5.679-4-4-14.975 16.718-24 16-10.265-11.057-23-12-17.644 11.889-19 17zm-59.057 79.651h8.281l-2.057 15.208h10.933l5.25-37.67h-10.933l-1.948 13.91h-8.335l1.948-13.91h-10.933l-5.3 37.67h10.933zm25-22.462-1.136 8.335h8.993l-4.113 29.335h10.933l4.113-29.335h8.39l2.273-8.335h-29.449zm29.335 0-1.137 8.335h8.985l-4.113 29.335h10.937l4.113-29.335h8.389l2.273-8.335h-29.443zm44.76 0h-13.31l-5.25 37.67h10.933l1.623-11.744h3.681a18.543 18.543 0 0 0 9.58-2.247 13.881 13.881 0 0 0 5.52-5.683 15.622 15.622 0 0 0 1.732-7.117 9.4 9.4 0 0 0 -3.816-8.091q-3.815-2.787-10.689-2.788zm-2.436 18.078h-2.489l1.461-10.338h2.327q4.385 0 4.384 3.789a8.25 8.25 0 0 1 -1.3 4.492 4.777 4.777 0 0 1 -4.384 2.057zm-97.143 22.922h-13.31l-5.25 37.67h10.933l1.624-11.744h3.68a18.541 18.541 0 0 0 9.58-2.247 13.889 13.889 0 0 0 5.521-5.683 15.635 15.635 0 0 0 1.732-7.117 9.4 9.4 0 0 0 -3.816-8.091q-3.816-2.787-10.69-2.788zm-2.435 18.078h-2.49l1.466-10.338h2.328q4.383 0 4.384 3.789a8.25 8.25 0 0 1 -1.3 4.492 4.777 4.777 0 0 1 -4.384 2.057zm21.595-18.078-5.25 37.67h23.76l2.273-8.551h-13.902l4.06-29.119h-10.937zm57.912 0h-10.931l-3.464 24.518a9.25 9.25 0 0 1 -1.7 4.709 4.5 4.5 0 0 1 -3.653 1.516 3.482 3.482 0 0 1 -2.734-.948 4.453 4.453 0 0 1 -.839-3 16.19 16.19 0 0 1 .163-2.164l3.464-24.627h-10.937l-3.464 24.843a20.553 20.553 0 0 0 -.163 2.544 10.579 10.579 0 0 0 3.41 8.335q3.409 3.03 10.23 3.031a19.4 19.4 0 0 0 8.659-1.813 14.854 14.854 0 0 0 5.819-4.926 16.154 16.154 0 0 0 2.679-7.063zm21.54-1.082q-7.522 0-12.394 3.626a20.873 20.873 0 0 0 -7.09 9.255 32.016 32.016 0 0 0 -2.219 11.853q0 15.1 15.479 15.1a28.838 28.838 0 0 0 14.5-4.222l2.6-19h-15.201l-.109 7.523h3.735l-.974 6.928a10.417 10.417 0 0 1 -4.06.866 4.4 4.4 0 0 1 -3.6-1.407q-1.164-1.407-1.164-4.926a30.962 30.962 0 0 1 2.328-12.475 8.1 8.1 0 0 1 7.956-5.331 8.871 8.871 0 0 1 3.437.622 13.562 13.562 0 0 1 3.22 2.03l5.954-5.359a15.331 15.331 0 0 0 -5.223-3.68 17.488 17.488 0 0 0 -7.172-1.407zm-54.868 44.851-1.578 11.326h3.287l.586-4.2h3.026l.326-2.326h-3.027l.342-2.474h3.435l.668-2.327h-7.063zm12.563-.325a5.469 5.469 0 0 0 -3.556 1.114 6.142 6.142 0 0 0 -1.961 2.775 10.158 10.158 0 0 0 -.586 3.4 4.838 4.838 0 0 0 1.164 3.45 4.349 4.349 0 0 0 3.328 1.236 5.43 5.43 0 0 0 3.563-1.123 6.219 6.219 0 0 0 1.953-2.782 10.163 10.163 0 0 0 .586-3.4 4.826 4.826 0 0 0 -1.156-3.442 4.357 4.357 0 0 0 -3.335-1.228zm-.261 2.375a1.187 1.187 0 0 1 1.033.464 2.7 2.7 0 0 1 .334 1.538 13.48 13.48 0 0 1 -.2 2.262 5.809 5.809 0 0 1 -.749 2.075 1.685 1.685 0 0 1 -1.5.886 1.178 1.178 0 0 1 -1.033-.471 2.781 2.781 0 0 1 -.334-1.563 13.169 13.169 0 0 1 .2-2.221 5.868 5.868 0 0 1 .744-2.078 1.685 1.685 0 0 1 1.5-.895zm14.841 1.074a2.721 2.721 0 0 0 -1.107-2.278 5.173 5.173 0 0 0 -3.189-.846h-4.085l-1.578 11.326h3.287l.553-4.036h.673l1.5 4.036h3.58l-2.034-4.573a4.4 4.4 0 0 0 1.912-1.586 4.055 4.055 0 0 0 .5-2.043zm-5.419-.829h.716a1.06 1.06 0 0 1 1.318 1.041 1.934 1.934 0 0 1 -.383 1.2 1.383 1.383 0 0 1 -1.179.5h-.846zm19.38-2.295h-2.864l-.488 3.45a22.1 22.1 0 0 0 -.228 2.978q0 .651.1 2.148l-1.448-8.576h-4.068l-1.579 11.326h2.868l.472-3.336a24.246 24.246 0 0 0 .228-3.157q0-.635-.065-1.643l-.017-.44 1.384 8.576h4.133zm5.419 0h-4l-1.579 11.326h3.287l.489-3.531h1.106a5.566 5.566 0 0 0 2.88-.676 4.168 4.168 0 0 0 1.66-1.708 4.7 4.7 0 0 0 .521-2.14 2.826 2.826 0 0 0 -1.147-2.433 5.374 5.374 0 0 0 -3.214-.838zm-.726 5.435h-.749l.439-3.108h.7a1.093 1.093 0 0 1 1.318 1.139 2.484 2.484 0 0 1 -.39 1.351 1.438 1.438 0 0 1 -1.318.618zm17.378-5.435h-4.165l-2.213 7.648-.212-7.648h-3.97l-2.376 11.326h3.238l.635-4.02q.195-1.155.284-2.221t.106-2.709l.375 7.811h3.156l2.376-7.844q-.537 2.815-.781 4.947l-.472 4.036h3.241z" fill="#2a3037" fill-rule="evenodd" transform="translate(-338.906 -88.594)"/></svg>