<svg xmlns="http://www.w3.org/2000/svg" width="140.5" height="158.344" viewBox="0 0 140.5 158.344">
  <metadata><?xpacket begin="﻿" id="W5M0MpCehiHzreSzNTczkc9d"?>
<x:xmpmeta xmlns:x="adobe:ns:meta/" x:xmptk="Adobe XMP Core 5.6-c138 79.159824, 2016/09/14-01:09:01        ">
   <rdf:RDF xmlns:rdf="http://www.w3.org/1999/02/22-rdf-syntax-ns#">
      <rdf:Description rdf:about=""/>
   </rdf:RDF>
</x:xmpmeta>
                                                                                                    
                                                                                                    
                                                                                                    
                                                                                                    
                                                                                                    
                                                                                                    
                                                                                                    
                                                                                                    
                                                                                                    
                                                                                                    
                                                                                                    
                                                                                                    
                                                                                                    
                                                                                                    
                                                                                                    
                                                                                                    
                                                                                                    
                                                                                                    
                                                                                                    
                                                                                                    
                           
<?xpacket end="w"?></metadata>
<defs>
    <style>
      .cls-1 {
        fill-rule: evenodd;
      }
    </style>
  </defs>
  <path id="plug_拷贝_2" data-name="plug 拷贝 2" class="cls-1" d="M441,306l1-11h5l3-19,15-8,3-16h17l-2,17,11,8-3,17h4l-2,12m-20.571-33L463,289.875l8.571-1.687L468.143,300,481,281.438l-12,3.374M472,251h7s1.291-9.139,11-10,11.586,12.39,23,12,27.587-17.255,29-19-0.806-5.679-4-4-14.975,16.718-24,16-10.265-11.057-23-12S473.356,245.889,472,251Zm-51.057,79.651h8.281l-2.057,15.208H438.1l5.25-37.67H432.417l-1.948,13.91h-8.335l1.948-13.91H413.149l-5.3,37.67h10.933Zm25-22.462-1.136,8.335H453.8l-4.113,29.335h10.933l4.113-29.335h8.39l2.273-8.335H445.947Zm29.335,0-1.137,8.335h8.985l-4.113,29.335H489.95l4.113-29.335h8.389l2.273-8.335H475.282Zm44.76,0H506.728l-5.25,37.67h10.933l1.623-11.744h3.681a18.543,18.543,0,0,0,9.58-2.247,13.881,13.881,0,0,0,5.52-5.683,15.622,15.622,0,0,0,1.732-7.117,9.4,9.4,0,0,0-3.816-8.091q-3.814-2.787-10.689-2.788h0Zm-2.436,18.078h-2.489l1.461-10.338h2.327q4.385,0,4.384,3.789a8.25,8.25,0,0,1-1.3,4.492,4.777,4.777,0,0,1-4.384,2.057h0Zm-97.143,22.922H407.149l-5.25,37.67h10.933l1.624-11.744h3.68a18.541,18.541,0,0,0,9.58-2.247,13.889,13.889,0,0,0,5.521-5.683,15.635,15.635,0,0,0,1.732-7.117,9.4,9.4,0,0,0-3.816-8.091q-3.816-2.787-10.69-2.788h0Zm-2.435,18.078h-2.49L417,356.929h2.328q4.385,0,4.384,3.789a8.25,8.25,0,0,1-1.3,4.492,4.777,4.777,0,0,1-4.384,2.057h0Zm21.595-18.078-5.25,37.67h23.76l2.273-8.551H446.5l4.06-29.119H439.623Zm57.912,0H486.6l-3.464,24.518a9.25,9.25,0,0,1-1.7,4.709,4.5,4.5,0,0,1-3.653,1.516,3.482,3.482,0,0,1-2.734-.948,4.458,4.458,0,0,1-.839-3,16.19,16.19,0,0,1,.163-2.164l3.464-24.627H466.9l-3.464,24.843a20.553,20.553,0,0,0-.163,2.544,10.577,10.577,0,0,0,3.41,8.335q3.409,3.03,10.23,3.031a19.4,19.4,0,0,0,8.659-1.813,14.854,14.854,0,0,0,5.819-4.926,16.154,16.154,0,0,0,2.679-7.063Zm21.54-1.082q-7.523,0-12.394,3.626a20.873,20.873,0,0,0-7.09,9.255,32.016,32.016,0,0,0-2.219,11.853q0,15.1,15.479,15.1a28.838,28.838,0,0,0,14.5-4.222l2.6-19H514.746l-0.109,7.523h3.735l-0.974,6.928a10.417,10.417,0,0,1-4.06.866,4.4,4.4,0,0,1-3.6-1.407q-1.164-1.407-1.164-4.926a30.962,30.962,0,0,1,2.328-12.475,8.1,8.1,0,0,1,7.956-5.331,8.871,8.871,0,0,1,3.437.622,13.562,13.562,0,0,1,3.22,2.03l5.954-5.359a15.331,15.331,0,0,0-5.223-3.68,17.488,17.488,0,0,0-7.172-1.407h0Z" transform="translate(-401.906 -229.594)"/>
</svg>
